<?xml version="1.0" encoding="utf-8"?>
<svg xmlns="http://www.w3.org/2000/svg"
     viewBox="0 0 122.88 119.853"
     xml:space="preserve">
  <style type="text/css">
    .st0 {
      fill: #36D3C6;
      fill-rule: evenodd;
      clip-rule: evenodd;
    }
  </style>
  <g>
    <path class="st0" d="M59.927,0c22.177,0.003,42.345,11.729,53.59,29.896c7.812,12.408,11.248,26.641,9.308,41.192
      c-2.81,21.114-15.65,39.954-34.061,50.948c-10.171,6.1-21.661,9.283-33.605,9.283c-22.181,0-42.351-11.729-53.595-29.897
      C2.74,89.914-0.696,75.681,1.245,61.13c2.81-21.114,15.65-39.954,34.061-50.948C45.477,2.516,57.048,0,59.927,0z M93.067,16.299
      l16.77-16.024l1.117,10.807l11.926,1.491l-17.958,17.401l-8.738,0.75L61.316,63.154l-3.213-2.767l33.027-34.5L93.067,16.299z
      M59.927,40.958c4.5,0.001,8.739,1.574,12.016,4.214c0.299,0.243,0.345,0.682,0.102,0.981l-4.681,6.004
      c-0.205,0.263-0.574,0.335-0.864,0.173c-2.562-1.431-5.88-1.019-8.048,1.007c-3.075,2.851-3.267,7.68-0.417,10.755
      c2.851,3.075,7.681,3.267,10.755,0.417c0.239-0.222,0.461-0.46,0.664-0.71l7.564-5.982c0.262-0.207,0.642-0.168,0.85,0.093
      c3.25,4.081,3.246,10.033-0.123,14.217c-5.236,6.465-14.703,7.372-21.169,2.136c-3.149-2.551-5.274-6.15-6.067-10.168
      c-1.437-7.236,1.388-14.911,7.113-19.428C52.845,42.059,56.361,40.958,59.927,40.958z"/>
  </g>
</svg>
