<svg width="23" height="22" viewBox="0 0 23 22" fill="none" xmlns="http://www.w3.org/2000/svg">
<path fill-rule="evenodd" clip-rule="evenodd" d="M17.0863 2.80834C18.6695 2.80834 19.9837 3.95974 20.2372 5.47086H3.24131V3.87338C3.24131 2.1088 4.67182 0.678345 6.43634 0.678345H9.17254C9.88395 0.678345 10.5751 0.915818 11.1363 1.35313L12.1379 2.13357C12.6991 2.57088 13.3903 2.80834 14.1017 2.80834H17.0863ZM20.8415 7.06834H2.68105C1.32499 7.06834 0.314188 8.31872 0.598329 9.64471L2.51968 18.611C2.94057 20.5751 4.67639 21.9784 6.6851 21.9784H16.8374C18.8461 21.9784 20.582 20.5751 21.0029 18.611L22.9243 9.64471C23.2085 8.31872 22.1976 7.06834 20.8415 7.06834ZM8.95504 14.2106L10.9297 16.6788C11.356 17.2117 12.1666 17.2117 12.5929 16.6788L14.5675 14.2106C14.8192 13.896 14.9563 13.5051 14.9563 13.1024V13.0228C14.9563 12.087 14.1977 11.3283 13.262 11.3283C12.8125 11.3283 12.3815 11.5069 12.0638 11.8247L11.7614 12.1272L11.4588 11.8247C11.1411 11.5069 10.7101 11.3283 10.2607 11.3283C9.32488 11.3283 8.56627 12.087 8.56627 13.0228V13.1024C8.56627 13.5051 8.70337 13.896 8.95504 14.2106Z" fill="url(#paint0_linear_36_818)" fill-opacity="0.58"/>
<defs>
<linearGradient id="paint0_linear_36_818" x1="9.29256" y1="14.1965" x2="10.5764" y2="22.1692" gradientUnits="userSpaceOnUse">
<stop stop-color="#45FACD"/>
<stop offset="1" stop-color="#0E8164"/>
</linearGradient>
</defs>
</svg>
