<svg width="25" height="26" viewBox="0 0 25 26" fill="none" xmlns="http://www.w3.org/2000/svg">
<path fill-rule="evenodd" clip-rule="evenodd" d="M4.7829 1.59414C4.76301 1.36481 4.65156 1.15321 4.4735 1.00714C4.29495 0.859135 4.06477 0.788599 3.83404 0.810764L1.23196 1.05512C1.00178 1.07575 0.789344 1.18713 0.641677 1.36481C0.493822 1.5423 0.42307 1.77144 0.44466 2.00134L0.567458 3.30216L4.90607 2.89592L4.7829 1.59414ZM6.85988 25.1244C6.94292 25.0339 6.9836 24.9122 6.97126 24.79L6.53558 20.1653C4.5697 17.7161 4.25143 14.3314 5.72671 11.5589L4.99049 3.76325L0.651921 4.16968L2.60493 24.8748C2.62632 25.0991 2.81525 25.2701 3.0404 25.2691H6.53966C6.66207 25.2687 6.77851 25.2161 6.85988 25.1244ZM14.7914 7.71414C13.3672 7.30596 11.8566 7.31081 10.4349 7.72765L10.4659 3.92734H14.8222L14.7914 7.71414ZM11.6525 19.2863C9.00159 16.6554 8.0478 12.7624 9.18222 9.20468C8.84682 9.39453 8.52799 9.6121 8.22857 9.85489C8.16501 10.0854 8.10506 10.317 8.05834 10.5474C8.01696 10.7501 7.83883 10.8955 7.63173 10.8957C7.60269 10.8957 7.57337 10.8928 7.54461 10.8871C7.45824 10.8682 7.37978 10.8225 7.3208 10.7564C5.57097 12.8225 5.17756 15.7151 6.31219 18.173C7.44688 20.631 9.90382 22.2088 12.6117 22.2185C12.5986 22.1302 12.6138 22.0402 12.6553 21.9612C12.711 21.86 12.8047 21.7851 12.9157 21.7528C13.0268 21.7208 13.1461 21.7341 13.2473 21.79C13.4521 21.9032 13.666 22.0078 13.8804 22.1053C14.4061 22.0118 14.9192 21.8575 15.4095 21.6453C13.9957 21.1514 12.7114 20.3449 11.6525 19.2863ZM7.12167 14.449C7.02533 13.8501 6.97674 13.2442 6.97674 12.6373V12.4074C6.98942 12.1705 7.18356 11.984 7.42109 11.9805C7.53657 11.9829 7.64663 12.031 7.72662 12.1145C7.80681 12.1979 7.85034 12.3097 7.84784 12.4253V12.6373C7.84826 13.1977 7.89296 13.757 7.98203 14.3102C8.02022 14.5475 7.85886 14.771 7.62133 14.8092C7.59825 14.8131 7.57469 14.815 7.55119 14.815C7.33778 14.8146 7.15577 14.6599 7.12167 14.449ZM9.082 18.4496C9.01587 18.4879 8.94074 18.508 8.86436 18.5075C8.70841 18.508 8.56403 18.4249 8.48613 18.2898C8.14512 17.6974 7.85865 17.0753 7.63 16.431C7.55313 16.2054 7.67207 15.9597 7.89685 15.8799C8.12183 15.8003 8.36892 15.9164 8.45126 16.1401C8.66232 16.7344 8.92702 17.3081 9.24204 17.8542C9.29984 17.9545 9.3153 18.0736 9.28522 18.1854C9.25493 18.2969 9.18166 18.3921 9.08123 18.4496H9.082ZM11.7369 21.3379C11.5841 21.5235 11.3097 21.5503 11.1239 21.3974C10.8382 21.1628 10.5577 20.9097 10.294 20.6449C10.0763 20.4295 9.86584 20.1996 9.66497 19.9631C9.50923 19.7796 9.53155 19.5046 9.71508 19.3489C9.89862 19.1932 10.1735 19.2156 10.3292 19.399C10.5149 19.6168 10.7102 19.8298 10.9097 20.0289C11.155 20.2739 11.4132 20.5079 11.6771 20.7257C11.8624 20.8785 11.8886 21.1525 11.7361 21.3379H11.7369ZM18.0899 19.5223C17.9076 19.4983 17.7249 19.4743 17.5491 19.4376L17.5477 19.4393C17.3937 19.403 17.2318 19.4529 17.1252 19.57C17.0184 19.6872 16.9839 19.8529 17.0346 20.0029C17.0855 20.153 17.2136 20.2634 17.3697 20.2917C17.3794 20.294 17.3903 20.2954 17.4012 20.2969C17.4117 20.2983 17.4223 20.2996 17.4323 20.3018C17.1406 20.5816 16.8254 20.8358 16.49 21.0613C13.912 20.4131 11.7449 18.6737 10.5546 16.2976C9.36444 13.9214 9.26941 11.1448 10.2948 8.69292C10.5618 8.59695 10.8347 8.51755 11.1116 8.45512C11.1094 8.46024 11.1072 8.46537 11.105 8.4705L11.099 8.48366C11.094 8.49468 11.089 8.50584 11.0846 8.51699C11.0266 8.66132 11.0499 8.82567 11.1459 8.94824C11.2421 9.07061 11.3961 9.13248 11.5503 9.11073C11.7044 9.08876 11.835 8.98622 11.8931 8.84189C11.9681 8.6607 12.0552 8.48346 12.1424 8.30615L12.1693 8.30421C12.3254 8.29305 12.4821 8.28182 12.6403 8.28182C13.4349 8.28321 14.2236 8.42082 14.9719 8.68807C15.0426 8.74322 15.1292 8.7744 15.2189 8.77731H15.2214C17.2574 9.58847 18.7929 11.3102 19.366 13.425C19.9391 15.5396 19.483 17.8007 18.1349 19.5282L18.0899 19.5223ZM10.4619 11.7659V11.8178C10.4644 11.9301 10.5119 12.0369 10.5938 12.114C10.6757 12.191 10.7852 12.2319 10.8976 12.2275H10.9038C11.148 12.2145 11.3381 12.0103 11.3333 11.7659C11.3331 11.2732 11.3786 10.7816 11.4692 10.2972C11.5137 10.061 11.358 9.8332 11.1214 9.78886C10.8848 9.74458 10.6572 9.90027 10.6127 10.1367C10.5122 10.6738 10.4617 11.2192 10.4619 11.7659ZM11.122 15.1014C11.2141 15.3234 11.4688 15.4288 11.6911 15.3371C11.9125 15.2449 12.018 14.991 11.9267 14.7691C11.7329 14.3012 11.5854 13.8154 11.4861 13.3188C11.4383 13.0837 11.2092 12.9315 10.9738 12.9786C10.7382 13.0257 10.5853 13.2544 10.6319 13.4899C10.7422 14.0419 10.9063 14.5816 11.122 15.1014ZM12.9826 17.8934C13.1519 18.0644 13.4276 18.0659 13.5986 17.8969C13.7684 17.7269 13.7684 17.4515 13.5986 17.2816C13.2425 16.921 12.9216 16.5273 12.6403 16.1056C12.5576 15.9676 12.4057 15.8865 12.2449 15.8944C12.0843 15.9023 11.9411 15.9983 11.8725 16.1436C11.8038 16.2891 11.821 16.4606 11.917 16.5896C12.2299 17.0571 12.5867 17.4937 12.9826 17.8934ZM16.0887 19.7851C16.196 19.7419 16.2818 19.6581 16.3271 19.5517V19.5535C16.4206 19.3328 16.3181 19.0779 16.0975 18.9834C15.6314 18.7847 15.1859 18.5407 14.7676 18.255C14.5703 18.1401 14.318 18.1968 14.1888 18.3848C14.0599 18.573 14.0978 18.8288 14.2762 18.9713C14.7415 19.2886 15.237 19.56 15.7551 19.7812C15.8614 19.8267 15.9814 19.8281 16.0887 19.7851ZM19.5554 11.5566C21.0321 14.3301 20.7136 17.7165 18.7459 20.1664L18.3081 24.7894C18.2964 24.9118 18.337 25.0336 18.4201 25.1244C18.503 25.2153 18.6206 25.2667 18.7436 25.2662H22.2429C22.4682 25.2674 22.6573 25.096 22.6785 24.8717L24.6296 4.16949L20.2916 3.76325L19.5554 11.5566ZM21.4463 0.811159L24.0483 1.05513L24.0505 1.05725C24.5274 1.10311 24.8779 1.52555 24.8347 2.00271L24.7113 3.30448L20.3733 2.89805L20.4965 1.59511C20.5175 1.36483 20.6295 1.15246 20.8078 1.00522C20.9863 0.857984 21.2161 0.788224 21.4463 0.811159ZM13.8137 22.9925C12.6945 23.1725 11.5493 23.0995 10.4618 22.7789V24.8308C10.4618 25.0713 10.6569 25.2661 10.8975 25.2661H14.3826C14.6232 25.2661 14.8183 25.0713 14.8183 24.8308V22.7789C14.5305 22.8605 14.2383 22.9254 13.9431 22.9732C13.902 22.9861 13.8593 22.9927 13.8163 22.9929L13.8137 22.9925ZM14.5891 1.14898C14.7512 1.31375 14.8413 1.53614 14.8393 1.7672L14.8287 3.05587H10.4724L10.4824 1.73193C10.4864 1.25381 10.8753 0.868385 11.3536 0.868385H11.3611L13.9749 0.888811C14.2061 0.890737 14.427 0.984395 14.5891 1.14898Z" fill="url(#paint0_linear_36_293)" fill-opacity="0.58"/>
<defs>
<linearGradient id="paint0_linear_36_293" x1="9.95333" y1="16.3319" x2="11.5052" y2="25.4619" gradientUnits="userSpaceOnUse">
<stop stop-color="#45FACD"/>
<stop offset="1" stop-color="#0E8164"/>
</linearGradient>
</defs>
</svg>
