<svg width="25" height="26" viewBox="0 0 25 26" fill="none" xmlns="http://www.w3.org/2000/svg">
<path fill-rule="evenodd" clip-rule="evenodd" d="M0.441528 13.0448C0.441528 6.3187 5.9142 0.846008 12.6403 0.846008C19.3679 0.846008 24.839 6.3187 24.839 13.0448C24.839 19.7709 19.3679 25.2435 12.6403 25.2435C5.9142 25.2435 0.441528 19.7709 0.441528 13.0448ZM18.5857 16.4589L21.8565 18.4214C22.32 17.6315 22.6829 16.7776 22.933 15.8749C23.1815 14.9737 23.3142 14.0253 23.3142 13.0448H19.4975C19.4975 11.8081 19.1681 10.6493 18.5948 9.64591L21.9113 7.76578C20.9827 6.1403 19.6409 4.78318 18.0276 3.83623L16.1139 7.13144C15.0953 6.53066 13.909 6.18299 12.6418 6.18299V2.37085H12.6403C10.7175 2.37085 8.91357 2.88473 7.35366 3.77828L9.18652 7.1223C8.17097 7.71698 7.32316 8.56632 6.72694 9.58187L3.40735 7.70021C2.49397 9.27233 1.96637 11.0976 1.96637 13.0448C1.96637 13.0616 1.96637 13.0768 1.9679 13.0921V13.0448H5.78459C5.78459 14.2814 6.11548 15.4403 6.68882 16.4437L3.36923 18.3238C4.31921 19.9844 5.70072 21.3674 7.3628 22.3158L9.24141 18.9993C10.2448 19.5757 11.4052 19.9066 12.6418 19.9066V23.7187C14.6012 23.7187 16.4372 23.185 18.0169 22.2594L16.0575 18.9917C17.1066 18.3848 17.9803 17.5095 18.5857 16.4589ZM12.6358 7.70749C9.69589 7.70749 7.3034 10.1015 7.3034 13.0444C7.3034 15.9874 9.69589 18.3814 12.6358 18.3814C15.5757 18.3814 17.9666 15.9874 17.9666 13.0444C17.9666 10.1015 15.5757 7.70749 12.6358 7.70749ZM14.4129 12.3425C14.0538 12.3425 13.7211 12.49 13.4883 12.7273C13.3885 12.8299 13.2156 12.9517 13.0293 13.0479C13.1224 12.7273 13.3885 12.3232 13.5815 12.1436C13.8276 11.9127 13.9739 11.5985 13.9739 11.2393C13.9739 10.5531 13.4085 10.0015 12.71 9.99503C12.0116 10.0015 11.4461 10.5531 11.4461 11.2393C11.4461 11.592 11.5925 11.9127 11.8386 12.1436C12.0315 12.3168 12.3043 12.7208 12.3907 13.0479C12.2045 12.9453 12.0382 12.8235 11.9317 12.7273C11.6989 12.49 11.373 12.3425 11.0071 12.3425C10.3153 12.3425 9.74323 12.9004 9.74323 13.5867C9.74323 14.2794 10.3153 14.8309 11.0204 14.8309C11.3862 14.8309 11.7122 14.6834 11.945 14.4397C12.0515 14.3371 12.2311 14.2024 12.4306 14.0934C12.4053 14.9243 12.0117 15.5516 11.5891 15.8309C11.549 15.8574 11.526 15.902 11.526 15.949C11.526 16.0293 11.5935 16.0944 11.6768 16.0944H13.7499C13.8332 16.0944 13.9007 16.0293 13.9007 15.949C13.9007 15.902 13.8778 15.8574 13.8376 15.8309C13.4151 15.5516 13.0217 14.924 13.0027 14.087C13.1956 14.196 13.3819 14.3307 13.4883 14.4333C13.7211 14.6706 14.0471 14.8245 14.4129 14.8245C15.118 14.8245 15.6901 14.2665 15.6901 13.5803C15.6901 12.9004 15.1247 12.3425 14.4129 12.3425Z" fill="url(#paint0_linear_36_520)" fill-opacity="0.58"/>
<defs>
<linearGradient id="paint0_linear_36_520" x1="9.95405" y1="16.33" x2="11.4979" y2="25.4372" gradientUnits="userSpaceOnUse">
<stop stop-color="#45FACD"/>
<stop offset="1" stop-color="#0E8164"/>
</linearGradient>
</defs>
</svg>
