<svg width="23" height="16" viewBox="0 0 23 16" fill="none" xmlns="http://www.w3.org/2000/svg">
<path d="M21.2465 3.47235C21.0717 2.70272 20.6729 2.00205 20.1005 1.45872C19.528 0.915325 18.8075 0.55366 18.0298 0.419266C17.2521 0.284802 16.4519 0.38364 15.7303 0.703302C15.0087 1.02297 14.3979 1.54918 13.9749 2.21546H9.30291C8.8799 1.54918 8.26914 1.02297 7.54747 0.703302C6.82587 0.38364 6.02574 0.284802 5.248 0.419266C4.47033 0.55366 3.74977 0.915325 3.17733 1.45872C2.6049 2.00205 2.20614 2.70272 2.03134 3.47235C1.14949 7.3711 -0.411859 14.25 3.48688 15.1337C5.58382 15.609 7.00358 13.8342 8.00568 11.4903C8.05718 11.493 8.10778 11.4982 8.15976 11.4982C8.56606 11.4984 8.96821 11.4163 9.34186 11.2568C9.71552 11.0972 10.0529 10.8635 10.3338 10.5699H12.9478C13.2284 10.8633 13.5655 11.0969 13.9389 11.2563C14.3122 11.4159 14.714 11.4982 15.1199 11.4982C15.1719 11.4982 15.2225 11.493 15.274 11.4903C16.2761 13.836 17.6959 15.609 19.7928 15.1337C23.6916 14.25 22.1321 7.37062 21.2465 3.47235ZM17.4406 2.21546C17.5783 2.21546 17.7129 2.25629 17.8274 2.33281C17.9418 2.40933 18.0311 2.51808 18.0838 2.64526C18.1365 2.77245 18.1503 2.91246 18.1234 3.04754C18.0965 3.18256 18.0302 3.30663 17.9329 3.40401C17.8355 3.50132 17.7115 3.56765 17.5764 3.59455C17.4414 3.62137 17.3014 3.60758 17.1742 3.5549C17.047 3.50222 16.9382 3.41295 16.8617 3.29845C16.7853 3.18402 16.7444 3.04941 16.7444 2.91169C16.7444 2.72705 16.8178 2.54996 16.9483 2.41938C17.0789 2.28886 17.2559 2.21546 17.4406 2.21546ZM16.0482 3.60792C16.1859 3.60792 16.3205 3.64875 16.435 3.7252C16.5495 3.80172 16.6387 3.91047 16.6914 4.03765C16.7441 4.16491 16.7579 4.30485 16.7311 4.43993C16.7042 4.57495 16.6378 4.69902 16.5405 4.7964C16.4431 4.89371 16.3191 4.96004 16.184 4.98694C16.049 5.01376 15.909 4.99997 15.7818 4.94729C15.6546 4.89462 15.5458 4.80534 15.4693 4.69091C15.3928 4.57641 15.352 4.44181 15.352 4.30408C15.352 4.11944 15.4254 3.94235 15.5559 3.81177C15.6865 3.68125 15.8636 3.60792 16.0482 3.60792ZM5.83722 6.39271C5.65257 6.39271 5.47555 6.31937 5.34497 6.18879C5.21439 6.05821 5.14106 5.88112 5.14106 5.69647V5.00032H4.44483C4.26018 5.00032 4.08309 4.92691 3.95258 4.7964C3.822 4.66582 3.74867 4.48873 3.74867 4.30408C3.74867 4.11944 3.822 3.94235 3.95258 3.81177C4.08309 3.68125 4.26018 3.60792 4.44483 3.60792H5.14106V2.91169C5.14106 2.72705 5.21439 2.54996 5.34497 2.41938C5.47555 2.28886 5.65257 2.21546 5.83722 2.21546C6.02186 2.21546 6.19895 2.28886 6.32953 2.41938C6.46012 2.54996 6.53345 2.72705 6.53345 2.91169V3.60792H7.22968C7.41432 3.60792 7.59134 3.68125 7.72192 3.81177C7.85251 3.94235 7.92584 4.11944 7.92584 4.30408C7.92584 4.48873 7.85251 4.66582 7.72192 4.7964C7.59134 4.92691 7.41432 5.00032 7.22968 5.00032H6.53345V5.69647C6.53345 5.88112 6.46012 6.05821 6.32953 6.18879C6.19895 6.31937 6.02186 6.39271 5.83722 6.39271ZM8.15789 10.1058C7.83663 10.1058 7.52252 10.0105 7.25539 9.83199C6.98827 9.65352 6.78006 9.39977 6.6571 9.10298C6.53414 8.80612 6.50198 8.47952 6.56464 8.16437C6.62736 7.84928 6.78207 7.55984 7.00927 7.33263C7.2364 7.10543 7.52591 6.95073 7.841 6.88807C8.15609 6.82534 8.48275 6.85751 8.77954 6.98046C9.0764 7.10342 9.33008 7.31163 9.50863 7.57876C9.6871 7.84595 9.78241 8.16 9.78241 8.48133C9.78241 8.91216 9.61121 9.32533 9.30658 9.62995C9.00196 9.93464 8.58873 10.1058 8.15789 10.1058ZM15.1199 10.1058C14.7987 10.1058 14.4845 10.0105 14.2174 9.83199C13.9503 9.65352 13.7421 9.39977 13.6191 9.10298C13.4962 8.80612 13.464 8.47952 13.5267 8.16437C13.5893 7.84928 13.7441 7.55984 13.9712 7.33263C14.1984 7.10543 14.4879 6.95073 14.803 6.88807C15.1181 6.82534 15.4448 6.85751 15.7416 6.98046C16.0384 7.10342 16.2921 7.31163 16.4706 7.57876C16.6491 7.84595 16.7444 8.16 16.7444 8.48133C16.7444 8.91216 16.5732 9.32533 16.2686 9.62995C15.964 9.93464 15.5508 10.1058 15.1199 10.1058ZM17.4406 6.39271C17.3029 6.39271 17.1683 6.35188 17.0538 6.27536C16.9393 6.19884 16.8501 6.09016 16.7974 5.96291C16.7447 5.83572 16.7309 5.69571 16.7578 5.56069C16.7846 5.42561 16.851 5.30154 16.9483 5.20423C17.0457 5.10685 17.1697 5.04051 17.3048 5.01369C17.4398 4.9868 17.5798 5.00059 17.707 5.05327C17.8342 5.10601 17.943 5.19522 18.0195 5.30972C18.096 5.42422 18.1368 5.55882 18.1368 5.69647C18.1368 5.88112 18.0634 6.05821 17.9329 6.18879C17.8023 6.31937 17.6252 6.39271 17.4406 6.39271ZM18.833 5.00032C18.6953 5.00032 18.5607 4.95949 18.4462 4.88297C18.3317 4.80645 18.2425 4.6977 18.1898 4.57052C18.1371 4.44333 18.1233 4.30332 18.1502 4.16823C18.177 4.03322 18.2434 3.90915 18.3407 3.81177C18.438 3.71445 18.5621 3.64812 18.6972 3.6213C18.8322 3.59441 18.9722 3.6082 19.0994 3.66088C19.2267 3.71355 19.3353 3.80283 19.4119 3.91733C19.4884 4.03176 19.5292 4.16636 19.5292 4.30408C19.5292 4.48873 19.4559 4.66582 19.3253 4.7964C19.1947 4.92691 19.0176 5.00032 18.833 5.00032Z" fill="url(#paint0_linear_36_111)" fill-opacity="0.58"/>
<defs>
<linearGradient id="paint0_linear_36_111" x1="9.28962" y1="9.78568" x2="9.95288" y2="15.4102" gradientUnits="userSpaceOnUse">
<stop stop-color="#45FACD"/>
<stop offset="1" stop-color="#0E8164"/>
</linearGradient>
</defs>
</svg>
