<svg width="26" height="22" viewBox="0 0 26 22" fill="none" xmlns="http://www.w3.org/2000/svg">
<path d="M24.3167 17.7676H23.4406V15.5506C24.0016 15.086 24.3596 14.3843 24.3596 13.6005V7.21996C24.3596 6.43605 24.0016 5.73496 23.4406 5.26982V2.85031C23.4406 1.38679 22.2499 0.196106 20.7864 0.196106H4.49374C3.03027 0.196106 1.83958 1.38679 1.83958 2.85031V5.26982C1.27849 5.73441 0.920509 6.43605 0.920509 7.21996V13.6005C0.920509 14.3843 1.27849 15.0854 1.83958 15.5506V17.7676H0.963391C0.552397 17.7676 0.218838 18.1011 0.218838 18.5121V19.467C0.218838 20.8625 1.35473 21.9984 2.75032 21.9984H22.5298C23.9254 21.9984 25.0613 20.8625 25.0613 19.467V18.5121C25.0613 18.1011 24.7277 17.7676 24.3167 17.7676ZM16.5883 9.20399C16.1767 9.20399 15.8437 8.87046 15.8437 8.45945C15.8437 8.04843 16.1767 7.71491 16.5883 7.71491H19.1978C19.4438 7.71491 19.6743 7.83641 19.8131 8.04011C19.9519 8.24382 19.981 8.5029 19.8905 8.73225L18.125 13.2151C18.0095 13.5081 17.7289 13.6868 17.4323 13.6868C17.3412 13.6868 17.2489 13.6701 17.1595 13.635C16.7771 13.4843 16.5889 13.0519 16.7396 12.6695L18.1042 9.20399H16.5883ZM11.3347 9.20399C10.9237 9.20399 10.5901 8.87046 10.5901 8.45945C10.5901 8.04843 10.9237 7.71491 11.3347 7.71491H13.9448C14.1909 7.71491 14.4213 7.83641 14.5601 8.04011C14.6989 8.24382 14.7275 8.5029 14.6376 8.73225L12.8721 13.2151C12.7565 13.5081 12.476 13.6868 12.1794 13.6868C12.0882 13.6868 11.9959 13.6701 11.9066 13.635C11.5236 13.4843 11.3359 13.0519 11.4866 12.6695L12.8512 9.20399H11.3347ZM6.08173 9.20399C5.67078 9.20399 5.33719 8.87046 5.33719 8.45945C5.33719 8.04843 5.67078 7.71491 6.08173 7.71491H8.69129C8.93783 7.71491 9.16836 7.83641 9.30712 8.04011C9.44533 8.24382 9.47451 8.5029 9.38399 8.73225L7.61912 13.2151C7.50357 13.5081 7.223 13.6868 6.9258 13.6868C6.83521 13.6868 6.74289 13.6701 6.65354 13.635C6.2706 13.4843 6.0829 13.0519 6.23366 12.6695L7.59825 9.20399H6.08173ZM3.32809 2.85031C3.32809 2.20759 3.85107 1.68521 4.49319 1.68521H9.47693V1.98363C9.47693 2.74546 10.0964 3.36494 10.8582 3.36494H14.4213C15.1832 3.36494 15.8026 2.74546 15.8026 1.98363V1.68521H20.7864C21.4291 1.68521 21.9515 2.20819 21.9515 2.85031V4.69142C21.9104 4.68961 21.8693 4.68844 21.8282 4.68844H3.45199C3.41088 4.68844 3.36919 4.68961 3.32869 4.69142L3.32809 2.85031ZM3.32809 16.1289C3.36919 16.1307 3.41029 16.1319 3.45139 16.1319H21.8275C21.8687 16.1319 21.9104 16.1307 21.9509 16.1289V17.7676H3.32809V16.1289Z" fill="url(#paint0_linear_36_845)" fill-opacity="0.58"/>
<defs>
<linearGradient id="paint0_linear_36_845" x1="9.90485" y1="14.033" x2="11.1235" y2="22.224" gradientUnits="userSpaceOnUse">
<stop stop-color="#45FACD"/>
<stop offset="1" stop-color="#0E8164"/>
</linearGradient>
</defs>
</svg>
