<svg width="27" height="22" viewBox="0 0 27 22" fill="none" xmlns="http://www.w3.org/2000/svg">
<path fill-rule="evenodd" clip-rule="evenodd" d="M13.7619 2.57688L15.9405 9.24902C16.0692 9.58545 16.0101 9.73509 16.0101 9.73509C15.9777 9.84849 15.8614 10.0486 15.7871 10.1296L11.1544 15.2779C10.9133 15.5476 10.5502 15.6706 10.191 15.599L3.35867 14.1514C3.25383 14.1323 3.149 14.0828 3.06799 14.0113L3.06704 14.0123C2.98508 13.9369 2.91741 13.8455 2.87738 13.7302L0.676847 6.97319C0.571057 6.65297 0.642538 6.28895 0.871265 6.03256L5.63167 0.744203C5.68788 0.676542 5.75456 0.62984 5.82512 0.599343L5.82131 0.587907C5.94045 0.529776 6.06812 0.514527 6.19392 0.540256L13.1424 2.01078C13.4331 2.07272 13.6704 2.2843 13.7619 2.57688ZM13.7505 7.02177C13.3617 6.63675 12.8432 6.46139 12.5926 6.6301C12.3419 6.7988 12.4544 7.24669 12.8451 7.63081C13.2339 8.01583 13.7524 8.19119 14.0031 8.02249C14.2527 7.85475 14.1402 7.4059 13.7505 7.02177ZM9.08829 2.54638C8.69945 2.16136 8.181 1.986 7.93037 2.15468C7.67967 2.32337 7.79314 2.77127 8.18287 3.15539C8.57171 3.54041 9.09016 3.71577 9.34086 3.54707C9.59051 3.37934 9.47809 2.93048 9.08829 2.54638ZM6.59038 7.64793C6.7105 7.12761 6.55704 6.67965 6.24632 6.64631C5.93567 6.61298 5.58683 7.00846 5.46678 7.52878C5.34666 8.04917 5.50012 8.49706 5.81084 8.53047C6.12052 8.56381 6.47034 8.16832 6.59038 7.64793ZM5.33335 3.14486C5.02263 3.11152 4.67289 3.50701 4.55281 4.02739C4.43178 4.54771 4.58617 4.99664 4.8959 5.02998C5.20658 5.06235 5.55543 4.66783 5.67644 4.14744C5.79649 3.62712 5.64311 3.17826 5.33335 3.14486ZM4.53565 6.06209C4.22497 6.02875 3.87521 6.42424 3.75513 6.94463C3.63409 7.46495 3.78848 7.91381 4.09917 7.94624C4.40985 7.97958 4.75962 7.58409 4.8797 7.06371C4.99976 6.54339 4.84634 6.09543 4.53565 6.06209ZM2.04349 6.58435C1.92341 7.10474 2.07684 7.55263 2.38753 7.58596C2.69822 7.61937 3.04702 7.22381 3.16711 6.7035C3.28719 6.18311 3.13375 5.73522 2.82307 5.70188C2.51333 5.66847 2.16357 6.06403 2.04349 6.58435ZM3.81898 9.26142C3.50829 9.22808 3.15853 9.62357 3.03845 10.1439C2.91837 10.6643 3.0718 11.1122 3.38249 11.1456C3.69318 11.1789 4.04294 10.7834 4.16302 10.263C4.2831 9.74272 4.12966 9.29476 3.81898 9.26142ZM8.82241 9.60167C8.32302 9.77509 7.97231 10.1611 8.03711 10.4622C8.10282 10.7634 8.55937 10.8673 9.05876 10.6938C9.55814 10.5204 9.90886 10.1344 9.84405 9.83324C9.77828 9.53208 9.32082 9.42818 8.82241 9.60167ZM9.682 11.6316C9.18262 11.8051 8.8319 12.191 8.89671 12.4922C8.96249 12.7933 9.41897 12.8972 9.91836 12.7238C10.4177 12.5503 10.7685 12.1643 10.7037 11.8632C10.6379 11.562 10.1804 11.4582 9.682 11.6316ZM9.65629 14.3105C9.722 14.6117 10.1795 14.7156 10.6779 14.5422C11.1773 14.3687 11.5289 13.9827 11.4632 13.6815C11.3975 13.3804 10.94 13.2765 10.4416 13.45C9.9422 13.6234 9.59148 14.0094 9.65629 14.3105ZM8.56221 8.53234L15.8205 9.67029L15.8214 9.66648L8.71373 7.58791L5.87946 0.76517L7.96655 8.02436L3.08514 13.9875L8.56221 8.53234ZM20.1587 6.01406L26.1399 9.50595C26.4534 9.68706 26.6478 10.0177 26.6478 10.3856L26.6164 17.3694C26.6183 17.478 26.5898 17.5943 26.5335 17.6896C26.5326 17.6906 26.5326 17.6915 26.5316 17.6925L26.2409 17.5085L26.3734 17.579L20.1816 13.5077L19.8413 6.05121H19.8375C19.8375 6.05121 19.4268 13.5135 19.4182 13.5087C19.4086 13.5039 13.1387 17.5914 13.1387 17.5914L13.1397 17.5924L19.8089 14.1815L26.5316 17.6925C26.4754 17.7859 26.401 17.8679 26.2991 17.9288L20.1977 21.415C19.908 21.5817 19.5421 21.5847 19.2476 21.415L13.172 17.8669C13.0863 17.8211 13.0215 17.7573 12.9776 17.6849C12.8957 17.58 12.8556 17.458 12.8547 17.3294L12.868 14.1872L15.4793 11.2852C15.4717 11.2958 15.4641 11.3072 15.4574 11.3177C15.1601 11.777 15.0933 12.3203 15.3087 12.5309C15.5241 12.7415 15.9406 12.5404 16.2379 12.0811C16.5353 11.6217 16.602 11.0785 16.3866 10.8678C16.2417 10.7258 16.0054 10.7716 15.7757 10.9565L16.1903 10.4952C16.3066 10.3675 16.4648 10.1083 16.5286 9.90054C16.5753 9.75949 16.6115 9.48786 16.4543 9.06659L16.0807 7.92205L19.4058 6.01884C19.5402 5.93976 19.6917 5.90164 19.8394 5.9121C19.9576 5.9207 20.0634 5.95785 20.1587 6.01406ZM23.9289 18.1556C23.8984 17.845 23.44 17.5828 22.9063 17.5705C22.3726 17.5581 21.9647 17.8001 21.9952 18.1099C22.0257 18.4206 22.4841 18.6827 23.0178 18.6951C23.5515 18.7074 23.9594 18.4664 23.9289 18.1556ZM20.6772 16.1333C20.6467 15.8264 20.1939 15.5672 19.666 15.5548C19.138 15.5425 18.7349 15.7817 18.7644 16.0885C18.7949 16.3954 19.2476 16.6546 19.7756 16.667C20.3045 16.6794 20.7077 16.4402 20.6772 16.1333ZM20.6457 19.852C20.6152 19.5414 20.1568 19.2792 19.6231 19.2669C19.0894 19.2545 18.6815 19.4956 18.712 19.8063C18.7425 20.117 19.2009 20.3791 19.7346 20.3915C20.2683 20.4038 20.6762 20.1627 20.6457 19.852ZM17.6332 17.9136C17.6027 17.6029 17.1442 17.3408 16.6106 17.3284C16.0769 17.316 15.669 17.5581 15.6995 17.8679C15.73 18.1785 16.1884 18.4406 16.7221 18.453C17.2558 18.4654 17.6637 18.2242 17.6332 17.9136ZM21.0555 12.9407C21.3261 13.3943 21.7751 13.6602 22.0572 13.5354C22.3393 13.4105 22.3478 12.9416 22.0771 12.488C21.8065 12.0344 21.3576 11.7685 21.0755 11.8933C20.7934 12.0181 20.7848 12.487 21.0555 12.9407ZM21.0555 10.7249C21.3261 11.1785 21.7751 11.4444 22.0572 11.3195C22.3393 11.1947 22.3478 10.7258 22.0771 10.2722C21.8065 9.81855 21.3576 9.55267 21.0755 9.6775C20.7934 9.8033 20.7848 10.2712 21.0555 10.7249ZM21.0555 8.72447C21.3261 9.17811 21.7751 9.44399 22.0572 9.31916C22.3393 9.19433 22.3478 8.72544 22.0771 8.2718C21.8065 7.81816 21.3576 7.55228 21.0755 7.67711C20.7934 7.80194 20.7848 8.27083 21.0555 8.72447ZM25.5156 10.1225C25.245 9.6689 24.7961 9.40303 24.514 9.52785C24.2319 9.65275 24.2233 10.1216 24.494 10.5753C24.7647 11.0289 25.2136 11.2948 25.4957 11.17C25.7778 11.0451 25.7863 10.5762 25.5156 10.1225ZM24.717 15.308C24.9877 15.7616 25.4366 16.0275 25.7187 15.9027C26.0008 15.7769 26.0093 15.308 25.7387 14.8553C25.468 14.4017 25.0192 14.1358 24.7371 14.2606C24.455 14.3855 24.4464 14.8543 24.717 15.308ZM24.717 12.9407C24.9877 13.3943 25.4366 13.6602 25.7187 13.5354C26.0008 13.4105 26.0093 12.9416 25.7387 12.488C25.468 12.0344 25.0192 11.7685 24.7371 11.8933C24.455 12.0181 24.4464 12.487 24.717 12.9407Z" fill="url(#paint0_linear_36_290)" fill-opacity="0.58"/>
<defs>
<linearGradient id="paint0_linear_36_290" x1="10.7736" y1="13.8642" x2="11.858" y2="21.7849" gradientUnits="userSpaceOnUse">
<stop stop-color="#45FACD"/>
<stop offset="1" stop-color="#0E8164"/>
</linearGradient>
</defs>
</svg>
