<svg width="27" height="25" viewBox="0 0 27 25" fill="none" xmlns="http://www.w3.org/2000/svg">
<path fill-rule="evenodd" clip-rule="evenodd" d="M25.962 5.3799L26.6555 4.91774C26.8721 4.77335 27.0022 4.53028 27.0022 4.27003V1.05416C27.0022 0.624273 26.6537 0.275757 26.2236 0.275757H1.20318C0.773163 0.275757 0.424541 0.624273 0.424541 1.05416V4.27003C0.424541 4.53028 0.554673 4.77335 0.771291 4.91774L1.46476 5.3799C2.27423 5.91939 2.76047 6.82769 2.76047 7.80023C2.76047 8.77284 2.27423 9.68108 1.46476 10.2206L0.771291 10.6827C0.554673 10.8271 0.424541 11.0701 0.424541 11.3304V14.5463C0.424541 14.9762 0.773163 15.3247 1.20318 15.3247H26.2236C26.6537 15.3247 27.0022 14.9762 27.0022 14.5463V11.3304C27.0022 11.0702 26.8721 10.8271 26.6555 10.6827L25.962 10.2206C25.1526 9.68108 24.6663 8.77284 24.6663 7.80023C24.6663 6.82769 25.1526 5.91939 25.962 5.3799ZM6.70558 11.4328C6.70558 11.8626 6.35694 12.2112 5.92694 12.2112C5.49693 12.2112 5.14829 11.8626 5.14829 11.4328V4.16776C5.14829 3.73785 5.49693 3.38934 5.92694 3.38934C6.35694 3.38934 6.70558 3.73785 6.70558 4.16776V11.4328ZM19.1639 10.9138C19.1639 11.3437 18.8153 11.6922 18.3853 11.6922H9.0415C8.61149 11.6922 8.26286 11.3437 8.26286 10.9138V4.68667C8.26286 4.2568 8.61149 3.90827 9.0415 3.90827H18.3853C18.8153 3.90827 19.1639 4.2568 19.1639 4.68667V10.9138ZM22.2785 11.4328C22.2785 11.8626 21.9298 12.2112 21.4998 12.2112C21.0698 12.2112 20.7212 11.8626 20.7212 11.4328V4.16776C20.7212 3.73785 21.0698 3.38934 21.4998 3.38934C21.9298 3.38934 22.2785 3.73785 22.2785 4.16776V11.4328ZM9.82021 5.46478H11.3775V7.02156H9.82021V5.46478ZM14.4919 5.46478H12.9346V7.02156H14.4919V5.46478ZM14.4921 8.57883H12.9348V10.1356H14.4921V8.57883ZM11.3774 8.57883H9.82014V10.1356H11.3774V8.57883ZM16.0492 8.57883H17.6065V10.1356H16.0492V8.57883ZM17.6065 5.46478H16.0492V7.02156H17.6065V5.46478ZM9.82021 20.773C9.82021 18.627 11.5667 16.881 13.7134 16.881C15.8601 16.881 17.6066 18.627 17.6066 20.773C17.6066 22.919 15.8601 24.6649 13.7134 24.6649C11.5667 24.6649 9.82021 22.919 9.82021 20.773ZM12.2619 21.5274C12.2619 22.3275 12.9131 22.9784 13.7134 22.9784C14.5138 22.9784 15.1649 22.3276 15.1649 21.5275C15.1649 20.7273 14.5137 20.0764 13.7133 20.0764C13.643 20.0764 13.5739 20.0817 13.5062 20.0915C13.8274 19.5595 14.1938 19.2752 14.203 19.2682C14.3745 19.1396 14.4099 18.8965 14.2818 18.7245C14.1535 18.552 13.9096 18.5161 13.7372 18.6444C13.686 18.6825 12.4894 19.5909 12.2802 21.2983C12.2683 21.373 12.2619 21.4494 12.2619 21.5274ZM23.109 16.881C20.9623 16.881 19.2158 18.627 19.2158 20.773C19.2158 22.919 20.9623 24.6649 23.109 24.6649C25.2558 24.6649 27.0023 22.919 27.0023 20.773C27.0023 18.627 25.2558 16.881 23.109 16.881ZM23.109 22.9784C22.315 22.9784 21.6689 22.3326 21.6689 21.5388C21.6689 21.0917 21.8738 20.6916 22.1947 20.4274C22.0438 20.2322 21.9536 19.9878 21.9536 19.7225C21.9536 19.0857 22.4719 18.5675 23.109 18.5675C23.7462 18.5675 24.2644 19.0857 24.2644 19.7225C24.2644 19.9877 24.1743 20.2322 24.0234 20.4274C24.3442 20.6916 24.5491 21.0918 24.5491 21.5388C24.5491 22.3326 23.9031 22.9784 23.109 22.9784ZM23.4857 19.7232C23.4857 19.9309 23.3167 20.0998 23.109 20.0998C22.9012 20.0998 22.7322 19.9309 22.7322 19.7232C22.7322 19.5156 22.9012 19.3466 23.109 19.3466C23.3167 19.3466 23.4857 19.5156 23.4857 19.7232ZM22.4479 21.5386C22.4479 21.174 22.7446 20.8773 23.1093 20.8773C23.474 20.8773 23.7707 21.1739 23.7707 21.5386C23.7707 21.9032 23.474 22.1998 23.1093 22.1998C22.7446 22.1998 22.4479 21.9032 22.4479 21.5386ZM13.7132 22.1998C14.0849 22.1998 14.3861 21.8987 14.3861 21.5272C14.3861 21.1557 14.0849 20.8545 13.7132 20.8545C13.3416 20.8545 13.0403 21.1557 13.0403 21.5272C13.0403 21.8987 13.3416 22.1998 13.7132 22.1998ZM0.424548 20.773C0.424548 18.627 2.17105 16.881 4.31777 16.881C6.46451 16.881 8.21101 18.627 8.21101 20.773C8.21101 22.9191 6.46451 24.665 4.31777 24.665C2.17105 24.665 0.424548 22.9191 0.424548 20.773ZM5.38076 21.9063H5.45867C5.67367 21.9063 5.84799 21.7321 5.84799 21.5172C5.84799 21.3023 5.67367 21.128 5.45867 21.128H5.38589C5.39102 20.2514 5.39379 19.3061 5.38298 19.1763C5.35962 18.8949 5.19106 18.6656 4.95361 18.592C4.71825 18.519 4.46738 18.6108 4.28257 18.8376C4.07702 19.0897 3.12338 20.8085 2.83596 21.3292C2.76941 21.4497 2.77154 21.5965 2.84161 21.7151C2.91164 21.8337 3.03913 21.9064 3.17684 21.9064H4.60207C4.60031 22.147 4.5985 22.378 4.59668 22.5859C4.59486 22.8009 4.76762 22.9766 4.98271 22.9784H4.98604C5.19952 22.9784 5.37349 22.8064 5.37529 22.5926L5.37598 22.509L5.37605 22.5083V22.5074C5.37716 22.3685 5.37889 22.157 5.38076 21.9063ZM3.83854 21.1282H4.60737C4.61033 20.6181 4.61235 20.1263 4.6122 19.7709C4.41074 20.1134 4.12788 20.6106 3.83854 21.1282Z" fill="url(#paint0_linear_36_208)" fill-opacity="0.58"/>
<defs>
<linearGradient id="paint0_linear_36_208" x1="10.7871" y1="15.7545" x2="12.2096" y2="24.8989" gradientUnits="userSpaceOnUse">
<stop stop-color="#45FACD"/>
<stop offset="1" stop-color="#0E8164"/>
</linearGradient>
</defs>
</svg>
