<svg width="136" height="45" viewBox="0 0 136 45" fill="none" xmlns="http://www.w3.org/2000/svg">
<g filter="url(#filter0_di_3_2442)">
<mask id="path-1-inside-1_3_2442" fill="white">
<path d="M0.519989 21.51C0.519989 10.0446 9.81456 0.75 21.28 0.75H114.45C125.915 0.75 135.21 10.0446 135.21 21.51C135.21 32.9754 125.915 42.27 114.45 42.27H21.28C9.81456 42.27 0.519989 32.9754 0.519989 21.51Z"/>
</mask>
<path d="M0.519989 21.51C0.519989 10.0446 9.81456 0.75 21.28 0.75H114.45C125.915 0.75 135.21 10.0446 135.21 21.51C135.21 32.9754 125.915 42.27 114.45 42.27H21.28C9.81456 42.27 0.519989 32.9754 0.519989 21.51Z" fill="url(#paint0_linear_3_2442)"/>
<path d="M21.28 1.75H114.45V-0.25H21.28V1.75ZM114.45 41.27H21.28V43.27H114.45V41.27ZM21.28 41.27C10.3668 41.27 1.51999 32.4231 1.51999 21.51H-0.480011C-0.480011 33.5277 9.26228 43.27 21.28 43.27V41.27ZM134.21 21.51C134.21 32.4231 125.363 41.27 114.45 41.27V43.27C126.468 43.27 136.21 33.5277 136.21 21.51H134.21ZM114.45 1.75C125.363 1.75 134.21 10.5969 134.21 21.51H136.21C136.21 9.49228 126.468 -0.25 114.45 -0.25V1.75ZM21.28 -0.25C9.26228 -0.25 -0.480011 9.49228 -0.480011 21.51H1.51999C1.51999 10.5969 10.3668 1.75 21.28 1.75V-0.25Z" fill="#FFF2A6" fill-opacity="0.5" mask="url(#path-1-inside-1_3_2442)"/>
<path d="M34.9534 14.4142L30.4924 17.8247L27.7547 19.9071C26.6013 20.7889 26.6013 22.2232 27.7547 23.105L34.9534 28.6084C35.8985 29.3309 37.5105 28.8103 37.5105 27.801V21.8407V15.2217C37.5105 14.2017 35.8985 13.6918 34.9534 14.4142Z" fill="#B64100"/>
<g filter="url(#filter1_d_3_2442)">
<path d="M54.1896 24.2471V28.01H51.7292V17.087H55.5835C58.3358 17.087 59.712 18.2473 59.712 20.568C59.712 21.6649 59.3159 22.5536 58.5237 23.234C57.7366 23.9094 56.6829 24.2471 55.3626 24.2471H54.1896ZM54.1896 18.976V22.3809H55.1569C56.4671 22.3809 57.1222 21.8071 57.1222 20.6594C57.1222 19.5372 56.4671 18.976 55.1569 18.976H54.1896ZM66.1638 22.3809C65.8743 22.2235 65.5366 22.1448 65.1507 22.1448C64.6276 22.1448 64.2188 22.3377 63.9243 22.7237C63.6298 23.1045 63.4825 23.625 63.4825 24.2852V28.01H61.0755V20.21H63.4825V21.6573H63.513C63.8938 20.601 64.5794 20.0729 65.5696 20.0729C65.8235 20.0729 66.0216 20.1034 66.1638 20.1643V22.3809ZM74.238 24.7956H69.1497C69.231 25.928 69.9444 26.4942 71.2901 26.4942C72.1483 26.4942 72.9024 26.2911 73.5524 25.8848V27.6215C72.8313 28.0075 71.8944 28.2004 70.7417 28.2004C69.4823 28.2004 68.5048 27.8526 67.8091 27.1569C67.1134 26.4561 66.7655 25.4811 66.7655 24.2319C66.7655 22.937 67.1413 21.9112 67.8929 21.1545C68.6444 20.3979 69.5687 20.0196 70.6655 20.0196C71.803 20.0196 72.6815 20.3573 73.3011 21.0327C73.9257 21.7081 74.238 22.6247 74.238 23.7825V24.7956ZM72.0062 23.3178C72.0062 22.2006 71.5542 21.642 70.6503 21.642C70.2644 21.642 69.9292 21.802 69.6448 22.1219C69.3655 22.4418 69.1954 22.8405 69.1345 23.3178H72.0062ZM83.0968 20.21L80.1946 28.01H77.4524L74.6874 20.21H77.262L78.6179 25.0165C78.7702 25.5598 78.8591 26.0219 78.8845 26.4028H78.9149C78.9505 26.0422 79.0444 25.5954 79.1968 25.0622L80.5831 20.21H83.0968ZM85.3439 18.976C84.9376 18.976 84.605 18.8567 84.346 18.618C84.087 18.3743 83.9575 18.0772 83.9575 17.7268C83.9575 17.3663 84.087 17.0717 84.346 16.8432C84.605 16.6147 84.9376 16.5004 85.3439 16.5004C85.7552 16.5004 86.0878 16.6147 86.3417 16.8432C86.6007 17.0717 86.7302 17.3663 86.7302 17.7268C86.7302 18.0924 86.6007 18.392 86.3417 18.6256C86.0878 18.8592 85.7552 18.976 85.3439 18.976ZM86.5321 28.01H84.1251V20.21H86.5321V28.01ZM92.2755 28.2004C90.9755 28.2004 89.9522 27.8374 89.2058 27.1112C88.4644 26.3799 88.0937 25.3897 88.0937 24.1405C88.0937 22.8506 88.4796 21.8426 89.2515 21.1165C90.0233 20.3852 91.0669 20.0196 92.3821 20.0196C93.6771 20.0196 94.6927 20.3852 95.429 21.1165C96.1653 21.8426 96.5335 22.8049 96.5335 24.0034C96.5335 25.2983 96.1526 26.3215 95.3909 27.0731C94.6343 27.8247 93.5958 28.2004 92.2755 28.2004ZM92.3364 21.8629C91.7677 21.8629 91.3259 22.0584 91.011 22.4495C90.6962 22.8405 90.5388 23.394 90.5388 24.11C90.5388 25.6081 91.1431 26.3571 92.3517 26.3571C93.5044 26.3571 94.0808 25.5877 94.0808 24.0491C94.0808 22.5917 93.4993 21.8629 92.3364 21.8629ZM105.507 28.01H103.107V26.8217H103.069C102.475 27.7409 101.68 28.2004 100.685 28.2004C98.8771 28.2004 97.9731 27.1061 97.9731 24.9174V20.21H100.373V24.7042C100.373 25.8061 100.809 26.3571 101.683 26.3571C102.114 26.3571 102.46 26.2073 102.719 25.9077C102.978 25.603 103.107 25.1917 103.107 24.6737V20.21H105.507V28.01ZM107.03 27.8043V25.8543C107.426 26.093 107.82 26.2708 108.211 26.3875C108.607 26.5043 108.98 26.5627 109.33 26.5627C109.757 26.5627 110.092 26.5043 110.336 26.3875C110.585 26.2708 110.709 26.093 110.709 25.8543C110.709 25.702 110.653 25.575 110.542 25.4735C110.43 25.3719 110.285 25.2831 110.107 25.2069C109.935 25.1307 109.744 25.0622 109.536 25.0012C109.328 24.9403 109.127 24.8717 108.934 24.7956C108.625 24.6788 108.35 24.5543 108.112 24.4223C107.878 24.2852 107.68 24.1278 107.517 23.95C107.36 23.7723 107.238 23.5667 107.152 23.3331C107.071 23.0995 107.03 22.8227 107.03 22.5028C107.03 22.0661 107.124 21.6903 107.312 21.3754C107.505 21.0606 107.759 20.8042 108.074 20.6061C108.393 20.403 108.757 20.2557 109.163 20.1643C109.574 20.0678 110.001 20.0196 110.442 20.0196C110.788 20.0196 111.138 20.0475 111.494 20.1034C111.849 20.1542 112.2 20.2303 112.545 20.3319V22.1905C112.24 22.0127 111.913 21.8807 111.562 21.7944C111.217 21.703 110.877 21.6573 110.542 21.6573C110.384 21.6573 110.234 21.6725 110.092 21.703C109.955 21.7284 109.833 21.769 109.726 21.8249C109.62 21.8756 109.536 21.9442 109.475 22.0305C109.414 22.1118 109.384 22.2057 109.384 22.3124C109.384 22.4545 109.429 22.5764 109.521 22.678C109.612 22.7795 109.732 22.8684 109.879 22.9446C110.026 23.0157 110.189 23.0817 110.366 23.1426C110.549 23.1985 110.729 23.2569 110.907 23.3178C111.227 23.4295 111.517 23.5514 111.775 23.6834C112.034 23.8155 112.255 23.9704 112.438 24.1481C112.626 24.3258 112.768 24.534 112.865 24.7727C112.966 25.0114 113.017 25.2958 113.017 25.6258C113.017 26.0879 112.916 26.484 112.712 26.8141C112.514 27.1391 112.248 27.4057 111.913 27.6139C111.583 27.817 111.199 27.9643 110.762 28.0557C110.331 28.1522 109.881 28.2004 109.414 28.2004C108.556 28.2004 107.761 28.0684 107.03 27.8043Z" fill="#B64100"/>
</g>
</g>
<defs>
<filter id="filter0_di_3_2442" x="0.519989" y="0.75" width="134.69" height="43.6" filterUnits="userSpaceOnUse" color-interpolation-filters="sRGB">
<feFlood flood-opacity="0" result="BackgroundImageFix"/>
<feColorMatrix in="SourceAlpha" type="matrix" values="0 0 0 0 0 0 0 0 0 0 0 0 0 0 0 0 0 0 127 0" result="hardAlpha"/>
<feOffset dy="2.08"/>
<feComposite in2="hardAlpha" operator="out"/>
<feColorMatrix type="matrix" values="0 0 0 0 0.713726 0 0 0 0 0.254902 0 0 0 0 0 0 0 0 1 0"/>
<feBlend mode="normal" in2="BackgroundImageFix" result="effect1_dropShadow_3_2442"/>
<feBlend mode="normal" in="SourceGraphic" in2="effect1_dropShadow_3_2442" result="shape"/>
<feColorMatrix in="SourceAlpha" type="matrix" values="0 0 0 0 0 0 0 0 0 0 0 0 0 0 0 0 0 0 127 0" result="hardAlpha"/>
<feMorphology radius="2.04" operator="erode" in="SourceAlpha" result="effect2_innerShadow_3_2442"/>
<feOffset dy="2.08"/>
<feComposite in2="hardAlpha" operator="arithmetic" k2="-1" k3="1"/>
<feColorMatrix type="matrix" values="0 0 0 0 1 0 0 0 0 0.94902 0 0 0 0 0.65098 0 0 0 1 0"/>
<feBlend mode="normal" in2="shape" result="effect2_innerShadow_3_2442"/>
</filter>
<filter id="filter1_d_3_2442" x="51.7292" y="16.5005" width="61.2879" height="13.78" filterUnits="userSpaceOnUse" color-interpolation-filters="sRGB">
<feFlood flood-opacity="0" result="BackgroundImageFix"/>
<feColorMatrix in="SourceAlpha" type="matrix" values="0 0 0 0 0 0 0 0 0 0 0 0 0 0 0 0 0 0 127 0" result="hardAlpha"/>
<feOffset dy="2.08"/>
<feComposite in2="hardAlpha" operator="out"/>
<feColorMatrix type="matrix" values="0 0 0 0 0.623529 0 0 0 0 0.203922 0 0 0 0 0 0 0 0 0.2 0"/>
<feBlend mode="normal" in2="BackgroundImageFix" result="effect1_dropShadow_3_2442"/>
<feBlend mode="normal" in="SourceGraphic" in2="effect1_dropShadow_3_2442" result="shape"/>
</filter>
<linearGradient id="paint0_linear_3_2442" x1="67.865" y1="0.75" x2="67.865" y2="42.27" gradientUnits="userSpaceOnUse">
<stop stop-color="#FFE600"/>
<stop offset="1" stop-color="#FFB800"/>
</linearGradient>
</defs>
</svg>
