<svg width="136" height="45" viewBox="0 0 136 45" fill="none" xmlns="http://www.w3.org/2000/svg">
<g filter="url(#filter0_di_3_2451)">
<mask id="path-1-inside-1_3_2451" fill="white">
<path d="M0.799988 21.51C0.799988 10.0446 10.0946 0.75 21.56 0.75H114.73C126.195 0.75 135.49 10.0446 135.49 21.51C135.49 32.9754 126.195 42.27 114.73 42.27H21.56C10.0946 42.27 0.799988 32.9754 0.799988 21.51Z"/>
</mask>
<path d="M0.799988 21.51C0.799988 10.0446 10.0946 0.75 21.56 0.75H114.73C126.195 0.75 135.49 10.0446 135.49 21.51C135.49 32.9754 126.195 42.27 114.73 42.27H21.56C10.0946 42.27 0.799988 32.9754 0.799988 21.51Z" fill="url(#paint0_linear_3_2451)"/>
<path d="M21.56 1.75H114.73V-0.25H21.56V1.75ZM114.73 41.27H21.56V43.27H114.73V41.27ZM21.56 41.27C10.6468 41.27 1.79999 32.4231 1.79999 21.51H-0.200012C-0.200012 33.5277 9.54228 43.27 21.56 43.27V41.27ZM134.49 21.51C134.49 32.4231 125.643 41.27 114.73 41.27V43.27C126.748 43.27 136.49 33.5277 136.49 21.51H134.49ZM114.73 1.75C125.643 1.75 134.49 10.5969 134.49 21.51H136.49C136.49 9.49228 126.748 -0.25 114.73 -0.25V1.75ZM21.56 -0.25C9.54227 -0.25 -0.200012 9.49228 -0.200012 21.51H1.79999C1.79999 10.5969 10.6468 1.75 21.56 1.75V-0.25Z" fill="#FFF2A6" fill-opacity="0.5" mask="url(#path-1-inside-1_3_2451)"/>
<g filter="url(#filter1_d_3_2451)">
<path d="M40.8062 27.51H38.4394L34.1487 20.9686C33.897 20.5863 33.7228 20.2983 33.626 20.1047H33.5969C33.6356 20.4725 33.655 21.034 33.655 21.789V27.51H31.4407V17.099H33.9672L38.0982 23.4371C38.287 23.7226 38.4612 24.0058 38.6209 24.2865H38.65C38.6113 24.0445 38.5919 23.5678 38.5919 22.8563V17.099H40.8062V27.51ZM49.6418 24.4462H44.792C44.8695 25.5256 45.5495 26.0652 46.8321 26.0652C47.6501 26.0652 48.3689 25.8716 48.9884 25.4844V27.1397C48.3011 27.5076 47.4081 27.6915 46.3094 27.6915C45.1091 27.6915 44.1774 27.36 43.5143 26.6969C42.8512 26.0289 42.5196 25.0996 42.5196 23.909C42.5196 22.6748 42.8778 21.6971 43.5941 20.9759C44.3105 20.2547 45.1914 19.8941 46.2368 19.8941C47.321 19.8941 48.1583 20.216 48.7488 20.8597C49.3441 21.5035 49.6418 22.3771 49.6418 23.4806V24.4462ZM47.5146 23.0378C47.5146 21.9729 47.0838 21.4405 46.2223 21.4405C45.8544 21.4405 45.535 21.593 45.264 21.8979C44.9977 22.2029 44.8356 22.5828 44.7775 23.0378H47.5146ZM58.187 20.0756L55.7331 23.6767L58.1725 27.51H55.5298L54.4553 25.5062C54.3682 25.3465 54.2641 25.1214 54.1431 24.831H54.1141C54.0415 25.0343 53.9422 25.2521 53.8164 25.4844L52.7346 27.51H50.0992L52.6112 23.8073L50.2517 20.0756H52.9089L53.9689 22.1593C54.1092 22.4352 54.2084 22.6675 54.2665 22.8563H54.2956C54.373 22.6288 54.4771 22.3916 54.6077 22.1448L55.6895 20.0756H58.187ZM63.7192 27.4229C63.3804 27.602 62.8698 27.6915 62.1873 27.6915C60.5707 27.6915 59.7624 26.8518 59.7624 25.1722V21.7672H58.5573V20.0756H59.7624V18.4711L62.0494 17.8177V20.0756H63.7192V21.7672H62.0494V24.7729C62.0494 25.5474 62.3567 25.9346 62.9714 25.9346C63.2134 25.9346 63.4627 25.8644 63.7192 25.724V27.4229Z" fill="#B64100"/>
</g>
<path d="M97.6654 19.9082L94.9277 17.8159L90.4667 14.4068C89.5217 13.6952 87.9096 14.205 87.9096 15.2246V21.8411V27.7991C87.9096 28.8187 89.5217 29.3285 90.4667 28.6063L97.6654 23.1049C98.8189 22.2341 98.8189 20.7897 97.6654 19.9082Z" fill="#B64100"/>
</g>
<defs>
<filter id="filter0_di_3_2451" x="0.799988" y="0.75" width="134.69" height="43.6" filterUnits="userSpaceOnUse" color-interpolation-filters="sRGB">
<feFlood flood-opacity="0" result="BackgroundImageFix"/>
<feColorMatrix in="SourceAlpha" type="matrix" values="0 0 0 0 0 0 0 0 0 0 0 0 0 0 0 0 0 0 127 0" result="hardAlpha"/>
<feOffset dy="2.08"/>
<feComposite in2="hardAlpha" operator="out"/>
<feColorMatrix type="matrix" values="0 0 0 0 0.713726 0 0 0 0 0.254902 0 0 0 0 0 0 0 0 1 0"/>
<feBlend mode="normal" in2="BackgroundImageFix" result="effect1_dropShadow_3_2451"/>
<feBlend mode="normal" in="SourceGraphic" in2="effect1_dropShadow_3_2451" result="shape"/>
<feColorMatrix in="SourceAlpha" type="matrix" values="0 0 0 0 0 0 0 0 0 0 0 0 0 0 0 0 0 0 127 0" result="hardAlpha"/>
<feMorphology radius="2.04" operator="erode" in="SourceAlpha" result="effect2_innerShadow_3_2451"/>
<feOffset dy="2.08"/>
<feComposite in2="hardAlpha" operator="arithmetic" k2="-1" k3="1"/>
<feColorMatrix type="matrix" values="0 0 0 0 1 0 0 0 0 0.94902 0 0 0 0 0.65098 0 0 0 1 0"/>
<feBlend mode="normal" in2="shape" result="effect2_innerShadow_3_2451"/>
</filter>
<filter id="filter1_d_3_2451" x="31.4407" y="17.099" width="32.2785" height="12.6725" filterUnits="userSpaceOnUse" color-interpolation-filters="sRGB">
<feFlood flood-opacity="0" result="BackgroundImageFix"/>
<feColorMatrix in="SourceAlpha" type="matrix" values="0 0 0 0 0 0 0 0 0 0 0 0 0 0 0 0 0 0 127 0" result="hardAlpha"/>
<feOffset dy="2.08"/>
<feComposite in2="hardAlpha" operator="out"/>
<feColorMatrix type="matrix" values="0 0 0 0 0.623529 0 0 0 0 0.203922 0 0 0 0 0 0 0 0 0.2 0"/>
<feBlend mode="normal" in2="BackgroundImageFix" result="effect1_dropShadow_3_2451"/>
<feBlend mode="normal" in="SourceGraphic" in2="effect1_dropShadow_3_2451" result="shape"/>
</filter>
<linearGradient id="paint0_linear_3_2451" x1="68.145" y1="0.75" x2="68.145" y2="42.27" gradientUnits="userSpaceOnUse">
<stop stop-color="#FFE600"/>
<stop offset="1" stop-color="#FFB800"/>
</linearGradient>
</defs>
</svg>
