<svg id="visual" viewBox="0 0 900 600" width="900" height="600" xmlns="http://www.w3.org/2000/svg" xmlns:xlink="http://www.w3.org/1999/xlink" version="1.1"><path d="M0 109L82 109L82 109L164 109L164 127L245 127L245 49L327 49L327 115L409 115L409 127L491 127L491 139L573 139L573 127L655 127L655 127L736 127L736 163L818 163L818 127L900 127L900 163L900 0L900 0L818 0L818 0L736 0L736 0L655 0L655 0L573 0L573 0L491 0L491 0L409 0L409 0L327 0L327 0L245 0L245 0L164 0L164 0L82 0L82 0L0 0Z" fill="#fa7268"></path><path d="M0 157L82 157L82 223L164 223L164 247L245 247L245 139L327 139L327 193L409 193L409 229L491 229L491 187L573 187L573 205L655 205L655 205L736 205L736 229L818 229L818 181L900 181L900 235L900 161L900 125L818 125L818 161L736 161L736 125L655 125L655 125L573 125L573 137L491 137L491 125L409 125L409 113L327 113L327 47L245 47L245 125L164 125L164 107L82 107L82 107L0 107Z" fill="#ea5e66"></path><path d="M0 391L82 391L82 343L164 343L164 349L245 349L245 373L327 373L327 319L409 319L409 397L491 397L491 403L573 403L573 343L655 343L655 307L736 307L736 379L818 379L818 331L900 331L900 445L900 233L900 179L818 179L818 227L736 227L736 203L655 203L655 203L573 203L573 185L491 185L491 227L409 227L409 191L327 191L327 137L245 137L245 245L164 245L164 221L82 221L82 155L0 155Z" fill="#d84a64"></path><path d="M0 487L82 487L82 379L164 379L164 439L245 439L245 463L327 463L327 409L409 409L409 481L491 481L491 451L573 451L573 439L655 439L655 403L736 403L736 421L818 421L818 433L900 433L900 493L900 443L900 329L818 329L818 377L736 377L736 305L655 305L655 341L573 341L573 401L491 401L491 395L409 395L409 317L327 317L327 371L245 371L245 347L164 347L164 341L82 341L82 389L0 389Z" fill="#c53762"></path><path d="M0 601L82 601L82 601L164 601L164 601L245 601L245 601L327 601L327 601L409 601L409 601L491 601L491 601L573 601L573 601L655 601L655 601L736 601L736 601L818 601L818 601L900 601L900 601L900 491L900 431L818 431L818 419L736 419L736 401L655 401L655 437L573 437L573 449L491 449L491 479L409 479L409 407L327 407L327 461L245 461L245 437L164 437L164 377L82 377L82 485L0 485Z" fill="#b0235f"></path></svg>